# xmcd CD database file
#
# Track frame offsets:
#	150
#	17382
#	32960
#	46892
#	56887
#	69255
#	88322
#	102752
#	113895
#	126895
#	135500
#	149757
#	158882
#	170232
#	183787
#	196687
#	208412
#	219862
#
# Disc length: 3117 seconds
#
# Revision: 0
# Processed by: cddbd v1.5.2PL0 Copyright (c) Steve Scherf et al.
# Submitted via: CDex 1.70beta2
#
DISCID=080c2b12
DTITLE=Various Artist - A Taste of Ireland
DYEAR=1999
DGENRE=Country
TTITLE0=Jim Finnegan - My lady from Glenfarne
TTITLE1=Mick Flavin - Oh! Carmen
TTITLE2=Frankie McBride - Five Little Fingers
TTITLE3=Susan McCann - Blue Jean Country Queen
TTITLE4=Gene Stuart - A picture of your mother
TTITLE5=John Greer - Roses for mama
TTITLE6=Logue and McCool - Shelly's winter love
TTITLE7=Frank McCaffrey - Rosmarie
TTITLE8=Larry Cunningham - The kingdom I call home
TTITLE9=Big Jim - Wooden heart
TTITLE10=Margo - Hils of Glenswilly
TTITLE11=Eileen King - Beutiful Brown Eyes
TTITLE12=Margo - San Antonio Rose
TTITLE13=Logue and McCool - Black Limousine
TTITLE14=Ray Lyman - Gypsy Joe and me
TTITLE15=Joe E. Hamilton - Do what you do do well
TTITLE16=Pat Ely - Pinto the wonder horse is dead
TTITLE17=Philomena Quinn - Wildflower
EXTD=YEAR: 1999
EXTT0=
EXTT1=
EXTT2=
EXTT3=
EXTT4=
EXTT5=
EXTT6=
EXTT7=
EXTT8=
EXTT9=
EXTT10=
EXTT11=
EXTT12=
EXTT13=
EXTT14=
EXTT15=
EXTT16=
EXTT17=
PLAYORDER=
